<svg viewBox="0 0 900 1100" xmlns="http://www.w3.org/2000/svg" font-family="'Courier New', monospace">
  <defs>
    <linearGradient id="bgGrad" x1="0" y1="0" x2="0" y2="1">
      <stop offset="0%" stop-color="#050810"/>
      <stop offset="100%" stop-color="#090d1a"/>
    </linearGradient>
    <linearGradient id="cyanGrad" x1="0" y1="0" x2="1" y2="0">
      <stop offset="0%" stop-color="#00e5ff"/>
      <stop offset="100%" stop-color="#00ff9d"/>
    </linearGradient>
    <linearGradient id="violetGrad" x1="0" y1="0" x2="1" y2="0">
      <stop offset="0%" stop-color="#7c4dff"/>
      <stop offset="100%" stop-color="#00e5ff"/>
    </linearGradient>
    <linearGradient id="amberGrad" x1="0" y1="0" x2="1" y2="0">
      <stop offset="0%" stop-color="#ffb300"/>
      <stop offset="100%" stop-color="#ff6d00"/>
    </linearGradient>
    <filter id="glow">
      <feGaussianBlur stdDeviation="3" result="blur"/>
      <feMerge><feMergeNode in="blur"/><feMergeNode in="SourceGraphic"/></feMerge>
    </filter>
    <filter id="softglow">
      <feGaussianBlur stdDeviation="1.5" result="blur"/>
      <feMerge><feMergeNode in="blur"/><feMergeNode in="SourceGraphic"/></feMerge>
    </filter>
    <marker id="arrow" markerWidth="8" markerHeight="8" refX="6" refY="3" orient="auto">
      <path d="M0,0 L0,6 L8,3 z" fill="#00e5ff" opacity="0.7"/>
    </marker>
    <marker id="arrowAmber" markerWidth="8" markerHeight="8" refX="6" refY="3" orient="auto">
      <path d="M0,0 L0,6 L8,3 z" fill="#ffb300" opacity="0.7"/>
    </marker>
  </defs>

  <!-- Background -->
  <rect width="900" height="1100" fill="url(#bgGrad)"/>

  <!-- Grid lines -->
  <g opacity="0.04" stroke="#00e5ff" stroke-width="0.5">
    <line x1="0" y1="40" x2="900" y2="40"/>
    <line x1="0" y1="80" x2="900" y2="80"/>
    <line x1="0" y1="120" x2="900" y2="120"/>
    <line x1="0" y1="160" x2="900" y2="160"/>
    <line x1="0" y1="200" x2="900" y2="200"/>
    <line x1="0" y1="240" x2="900" y2="240"/>
    <line x1="0" y1="280" x2="900" y2="280"/>
    <line x1="0" y1="320" x2="900" y2="320"/>
    <line x1="0" y1="360" x2="900" y2="360"/>
    <line x1="0" y1="400" x2="900" y2="400"/>
    <line x1="0" y1="440" x2="900" y2="440"/>
    <line x1="0" y1="480" x2="900" y2="480"/>
    <line x1="0" y1="520" x2="900" y2="520"/>
    <line x1="0" y1="560" x2="900" y2="560"/>
    <line x1="0" y1="600" x2="900" y2="600"/>
    <line x1="0" y1="640" x2="900" y2="640"/>
    <line x1="0" y1="680" x2="900" y2="680"/>
    <line x1="0" y1="720" x2="900" y2="720"/>
    <line x1="0" y1="760" x2="900" y2="760"/>
    <line x1="0" y1="800" x2="900" y2="800"/>
    <line x1="0" y1="840" x2="900" y2="840"/>
    <line x1="0" y1="880" x2="900" y2="880"/>
    <line x1="0" y1="920" x2="900" y2="920"/>
    <line x1="0" y1="960" x2="900" y2="960"/>
    <line x1="0" y1="1000" x2="900" y2="1000"/>
    <line x1="0" y1="1040" x2="900" y2="1040"/>
    <line x1="40" y1="0" x2="40" y2="1100"/>
    <line x1="80" y1="0" x2="80" y2="1100"/>
    <line x1="120" y1="0" x2="120" y2="1100"/>
    <line x1="160" y1="0" x2="160" y2="1100"/>
    <line x1="200" y1="0" x2="200" y2="1100"/>
    <line x1="240" y1="0" x2="240" y2="1100"/>
    <line x1="280" y1="0" x2="280" y2="1100"/>
    <line x1="320" y1="0" x2="320" y2="1100"/>
    <line x1="360" y1="0" x2="360" y2="1100"/>
    <line x1="400" y1="0" x2="400" y2="1100"/>
    <line x1="440" y1="0" x2="440" y2="1100"/>
    <line x1="480" y1="0" x2="480" y2="1100"/>
    <line x1="520" y1="0" x2="520" y2="1100"/>
    <line x1="560" y1="0" x2="560" y2="1100"/>
    <line x1="600" y1="0" x2="600" y2="1100"/>
    <line x1="640" y1="0" x2="640" y2="1100"/>
    <line x1="680" y1="0" x2="680" y2="1100"/>
    <line x1="720" y1="0" x2="720" y2="1100"/>
    <line x1="760" y1="0" x2="760" y2="1100"/>
    <line x1="800" y1="0" x2="800" y2="1100"/>
    <line x1="840" y1="0" x2="840" y2="1100"/>
    <line x1="880" y1="0" x2="880" y2="1100"/>
  </g>

  <!-- Title -->
  <text x="450" y="38" text-anchor="middle" fill="#00e5ff" font-size="11" letter-spacing="6" filter="url(#glow)">EXPLAINPLAN VISION — SYSTEM ARCHITECTURE</text>
  <line x1="60" y1="48" x2="840" y2="48" stroke="#00e5ff" stroke-width="0.5" opacity="0.4"/>

  <!-- ── INPUT NODE ── -->
  <rect x="330" y="64" width="240" height="52" fill="none" stroke="#00e5ff" stroke-width="1.5" filter="url(#softglow)"/>
  <rect x="330" y="64" width="240" height="52" fill="rgba(0,229,255,0.05)"/>
  <text x="450" y="85" text-anchor="middle" fill="#00e5ff" font-size="9" letter-spacing="3">INPUT</text>
  <text x="450" y="103" text-anchor="middle" fill="#e8f0fe" font-size="12" font-weight="bold">Leaf Image</text>
  <text x="450" y="115" text-anchor="middle" fill="#8899bb" font-size="8">JPEG · PNG · WebP · max 10MB</text>

  <!-- Arrow 1 -->
  <line x1="450" y1="116" x2="450" y2="136" stroke="#00e5ff" stroke-width="1.5" marker-end="url(#arrow)" opacity="0.7"/>

  <!-- ── STAGE 01 — VISION ── -->
  <rect x="220" y="140" width="460" height="80" fill="none" stroke="#00e5ff" stroke-width="1.5" filter="url(#softglow)"/>
  <rect x="220" y="140" width="460" height="80" fill="rgba(0,229,255,0.04)"/>
  <rect x="220" y="140" width="4" height="80" fill="url(#cyanGrad)"/>
  <text x="234" y="158" fill="#00e5ff" font-size="8" letter-spacing="2">STAGE 01</text>
  <text x="234" y="176" fill="#e8f0fe" font-size="13" font-weight="bold">Vision Engine</text>
  <text x="234" y="194" fill="#8899bb" font-size="9">EfficientNet-B0  ·  5.3M params  ·  PlantVillage fine-tune</text>
  <text x="234" y="210" fill="#8899bb" font-size="9">15 disease classes  ·  Top-1: 96.8%  ·  Top-3: 99.1%</text>
  <!-- Right side outputs -->
  <text x="670" y="165" fill="#00ff9d" font-size="8">confidence</text>
  <text x="670" y="180" fill="#00ff9d" font-size="8">top-3 classes</text>
  <text x="670" y="195" fill="#00ff9d" font-size="8">severity</text>
  <text x="670" y="210" fill="#00ff9d" font-size="8">is_healthy</text>

  <!-- Arrow 2 -->
  <line x1="450" y1="220" x2="450" y2="240" stroke="#00e5ff" stroke-width="1.5" marker-end="url(#arrow)" opacity="0.7"/>

  <!-- ── STAGE 02 — XAI ── -->
  <rect x="220" y="244" width="460" height="80" fill="none" stroke="#00ff9d" stroke-width="1.5" filter="url(#softglow)"/>
  <rect x="220" y="244" width="460" height="80" fill="rgba(0,255,157,0.04)"/>
  <rect x="220" y="244" width="4" height="80" fill="#00ff9d"/>
  <text x="234" y="262" fill="#00ff9d" font-size="8" letter-spacing="2">STAGE 02</text>
  <text x="234" y="280" fill="#e8f0fe" font-size="13" font-weight="bold">XAI Engine — Grad-CAM++</text>
  <text x="234" y="298" fill="#8899bb" font-size="9">Gradient-weighted Class Activation Mapping (Chattopadhay 2018)</text>
  <text x="234" y="314" fill="#8899bb" font-size="9">Spatial heatmap  ·  Focus score  ·  Activation entropy</text>
  <text x="670" y="269" fill="#00ff9d" font-size="8">heatmap (b64)</text>
  <text x="670" y="284" fill="#00ff9d" font-size="8">focus_score</text>
  <text x="670" y="299" fill="#00ff9d" font-size="8">entropy</text>
  <text x="670" y="314" fill="#00ff9d" font-size="8">spread</text>

  <!-- Arrow 3 -->
  <line x1="450" y1="324" x2="450" y2="344" stroke="#00e5ff" stroke-width="1.5" marker-end="url(#arrow)" opacity="0.7"/>

  <!-- ── STAGE 03 — SYMBOLIC GROUNDING ── -->
  <rect x="220" y="348" width="460" height="68" fill="none" stroke="#7c4dff" stroke-width="1.5" filter="url(#softglow)"/>
  <rect x="220" y="348" width="460" height="68" fill="rgba(124,77,255,0.04)"/>
  <rect x="220" y="348" width="4" height="68" fill="#7c4dff"/>
  <text x="234" y="366" fill="#7c4dff" font-size="8" letter-spacing="2">STAGE 03</text>
  <text x="234" y="384" fill="#e8f0fe" font-size="13" font-weight="bold">Symbolic Fact Extraction</text>
  <text x="234" y="402" fill="#8899bb" font-size="9">Neural output → First-order logic predicates with confidence scores</text>
  <text x="234" y="416" fill="#8899bb" font-size="9">disease_detected(X)  ·  severity(X,high)  ·  infection_spread(X,widespread)</text>

  <!-- Arrow 4 -->
  <line x1="450" y1="416" x2="450" y2="436" stroke="#00e5ff" stroke-width="1.5" marker-end="url(#arrow)" opacity="0.7"/>

  <!-- ── STAGE 04 — KG INFERENCE ── -->
  <rect x="220" y="440" width="460" height="80" fill="none" stroke="#ffb300" stroke-width="1.5" filter="url(#softglow)"/>
  <rect x="220" y="440" width="460" height="80" fill="rgba(255,179,0,0.04)"/>
  <rect x="220" y="440" width="4" height="80" fill="url(#amberGrad)"/>
  <text x="234" y="458" fill="#ffb300" font-size="8" letter-spacing="2">STAGE 04</text>
  <text x="234" y="476" fill="#e8f0fe" font-size="13" font-weight="bold">Knowledge Graph Inference</text>
  <text x="234" y="494" fill="#8899bb" font-size="9">NetworkX disease KG  ·  20+ first-order inference rules</text>
  <text x="234" y="510" fill="#8899bb" font-size="9">Derives: urgency_score  ·  spread_risk  ·  treatment_class  ·  isolation_flag</text>
  <text x="670" y="465" fill="#ffb300" font-size="8">urgency_level</text>
  <text x="670" y="480" fill="#ffb300" font-size="8">urgency_score</text>
  <text x="670" y="495" fill="#ffb300" font-size="8">treatment_class</text>
  <text x="670" y="510" fill="#ffb300" font-size="8">rules_fired: 14</text>

  <!-- Temporal memory branch — horizontal -->
  <line x1="220" y1="520" x2="120" y2="520" stroke="#00e5ff" stroke-width="1" stroke-dasharray="4,3" opacity="0.5"/>
  <line x1="120" y1="520" x2="120" y2="576" stroke="#00e5ff" stroke-width="1" stroke-dasharray="4,3" opacity="0.5"/>
  <line x1="120" y1="576" x2="162" y2="576" stroke="#00e5ff" stroke-width="1" marker-end="url(#arrow)" stroke-dasharray="4,3" opacity="0.5"/>
  <!-- Temporal memory box -->
  <rect x="30" y="528" width="86" height="44" fill="none" stroke="#00e5ff" stroke-width="0.8" opacity="0.5"/>
  <text x="73" y="545" text-anchor="middle" fill="#00e5ff" font-size="7" letter-spacing="1">TEMPORAL</text>
  <text x="73" y="558" text-anchor="middle" fill="#00e5ff" font-size="7" letter-spacing="1">MEMORY</text>
  <text x="73" y="567" text-anchor="middle" fill="#8899bb" font-size="6">sliding window</text>

  <!-- Arrow 5 -->
  <line x1="450" y1="520" x2="450" y2="540" stroke="#00e5ff" stroke-width="1.5" marker-end="url(#arrow)" opacity="0.7"/>

  <!-- ── STAGE 05+06 — PLANNING ── -->
  <rect x="220" y="544" width="460" height="80" fill="none" stroke="#ffb300" stroke-width="1.5" filter="url(#softglow)"/>
  <rect x="220" y="544" width="460" height="80" fill="rgba(255,179,0,0.03)"/>
  <rect x="220" y="544" width="4" height="80" fill="url(#amberGrad)"/>
  <text x="234" y="562" fill="#ffb300" font-size="8" letter-spacing="2">STAGES 05–06</text>
  <text x="234" y="580" fill="#e8f0fe" font-size="13" font-weight="bold">Adaptive Planning Engine</text>
  <text x="234" y="598" fill="#8899bb" font-size="9">6 context mechanisms: disease type · spread · urgency · season · severity · trend</text>
  <text x="234" y="614" fill="#8899bb" font-size="9">Numbered steps  ·  Category tags  ·  Urgency annotations  ·  Escalation flags</text>

  <!-- Arrow 6 -->
  <line x1="450" y1="624" x2="450" y2="644" stroke="#00e5ff" stroke-width="1.5" marker-end="url(#arrow)" opacity="0.7"/>

  <!-- ── STAGE 07 — COUNTERFACTUALS ── -->
  <rect x="220" y="648" width="220" height="68" fill="none" stroke="#7c4dff" stroke-width="1.2"/>
  <rect x="220" y="648" width="220" height="68" fill="rgba(124,77,255,0.03)"/>
  <rect x="220" y="648" width="3" height="68" fill="#7c4dff"/>
  <text x="234" y="666" fill="#7c4dff" font-size="7" letter-spacing="2">STAGE 07</text>
  <text x="234" y="682" fill="#e8f0fe" font-size="11" font-weight="bold">Counterfactuals</text>
  <text x="234" y="698" fill="#8899bb" font-size="8">4 what-if scenarios</text>
  <text x="234" y="712" fill="#8899bb" font-size="8">plan_delta per scenario</text>

  <!-- ── STAGE 08 — DECISION TREE ── -->
  <rect x="460" y="648" width="220" height="68" fill="none" stroke="#00e5ff" stroke-width="1.2"/>
  <rect x="460" y="648" width="220" height="68" fill="rgba(0,229,255,0.03)"/>
  <rect x="460" y="648" width="3" height="68" fill="#00e5ff"/>
  <text x="474" y="666" fill="#00e5ff" font-size="7" letter-spacing="2">STAGE 08</text>
  <text x="474" y="682" fill="#e8f0fe" font-size="11" font-weight="bold">Decision Tree</text>
  <text x="474" y="698" fill="#8899bb" font-size="8">Probabilistic look-ahead</text>
  <text x="474" y="712" fill="#8899bb" font-size="8">expected_urgency scalar</text>

  <!-- Lines from stage 06 to 07+08 -->
  <line x1="330" y1="644" x2="330" y2="648" stroke="#00e5ff" stroke-width="1.2" opacity="0.6"/>
  <line x1="570" y1="644" x2="570" y2="648" stroke="#00e5ff" stroke-width="1.2" opacity="0.6"/>
  <line x1="330" y1="644" x2="570" y2="644" stroke="#00e5ff" stroke-width="1.2" opacity="0.6"/>

  <!-- Lines from 07+08 converge -->
  <line x1="330" y1="716" x2="330" y2="736" stroke="#00e5ff" stroke-width="1.2" opacity="0.6"/>
  <line x1="570" y1="716" x2="570" y2="736" stroke="#00e5ff" stroke-width="1.2" opacity="0.6"/>
  <line x1="330" y1="736" x2="570" y2="736" stroke="#00e5ff" stroke-width="1.2" opacity="0.6"/>
  <line x1="450" y1="736" x2="450" y2="748" stroke="#00e5ff" stroke-width="1.5" marker-end="url(#arrow)" opacity="0.7"/>

  <!-- ── STAGE 09 — EXPLANATIONS ── -->
  <rect x="220" y="752" width="460" height="80" fill="none" stroke="#00ff9d" stroke-width="1.5" filter="url(#softglow)"/>
  <rect x="220" y="752" width="460" height="80" fill="rgba(0,255,157,0.04)"/>
  <rect x="220" y="752" width="4" height="80" fill="#00ff9d"/>
  <text x="234" y="770" fill="#00ff9d" font-size="8" letter-spacing="2">STAGE 09</text>
  <text x="234" y="788" fill="#e8f0fe" font-size="13" font-weight="bold">Human-Adaptive Explanations</text>
  <!-- Three persona chips -->
  <rect x="234" y="798" width="76" height="18" fill="rgba(0,255,157,0.1)" stroke="#00ff9d" stroke-width="0.8"/>
  <text x="272" y="811" text-anchor="middle" fill="#00ff9d" font-size="8">Farmer</text>
  <rect x="320" y="798" width="90" height="18" fill="rgba(0,229,255,0.1)" stroke="#00e5ff" stroke-width="0.8"/>
  <text x="365" y="811" text-anchor="middle" fill="#00e5ff" font-size="8">Agronomist</text>
  <rect x="420" y="798" width="90" height="18" fill="rgba(124,77,255,0.1)" stroke="#7c4dff" stroke-width="0.8"/>
  <text x="465" y="811" text-anchor="middle" fill="#7c4dff" font-size="8">Researcher</text>
  <text x="234" y="828" fill="#8899bb" font-size="9">All grounded in verified symbolic facts — no LLM hallucination</text>

  <!-- Arrow final -->
  <line x1="450" y1="832" x2="450" y2="852" stroke="#00e5ff" stroke-width="1.5" marker-end="url(#arrow)" opacity="0.7"/>

  <!-- ── STAGE 10 — UNIFIED RESPONSE ── -->
  <rect x="220" y="856" width="460" height="52" fill="none" stroke="url(#cyanGrad)" stroke-width="2" filter="url(#softglow)"/>
  <rect x="220" y="856" width="460" height="52" fill="rgba(0,229,255,0.06)"/>
  <text x="234" y="876" fill="#00e5ff" font-size="8" letter-spacing="2">STAGE 10</text>
  <text x="234" y="896" fill="#e8f0fe" font-size="13" font-weight="bold">Unified JSON Response  ·  /api/v1/full-analysis</text>

  <!-- Arrow to client -->
  <line x1="450" y1="908" x2="450" y2="928" stroke="#00e5ff" stroke-width="1.5" marker-end="url(#arrow)" opacity="0.7"/>

  <!-- ── CLIENT ── -->
  <rect x="220" y="932" width="460" height="52" fill="none" stroke="#00e5ff" stroke-width="1"/>
  <rect x="220" y="932" width="460" height="52" fill="rgba(0,229,255,0.03)"/>
  <text x="234" y="952" fill="#8899bb" font-size="8" letter-spacing="2">CLIENT</text>
  <text x="234" y="972" fill="#e8f0fe" font-size="12" font-weight="bold">React 19 · Tailwind CSS 4 · Vercel</text>
  <text x="580" y="952" fill="#8899bb" font-size="7">Analyze · Memory · About</text>

  <!-- Bottom label -->
  <line x1="60" y1="1004" x2="840" y2="1004" stroke="#00e5ff" stroke-width="0.5" opacity="0.3"/>
  <text x="450" y="1024" text-anchor="middle" fill="#4a5568" font-size="8" letter-spacing="3">PHASE 1 — VISION   PHASE 2 — XAI   PHASE 3 — PLANNING   PHASE 4 — NEURO-SYMBOLIC</text>
  <text x="450" y="1044" text-anchor="middle" fill="#4a5568" font-size="7">EfficientNet-B0  ·  Grad-CAM++  ·  NetworkX KG  ·  FastAPI  ·  React 19  ·  HuggingFace Spaces  ·  Vercel</text>
  <text x="450" y="1064" text-anchor="middle" fill="#4a5568" font-size="7">Muhammad Aqib Niazi  ·  2026  ·  ExplainPlan Vision</text>
</svg>
